<svg width="720" height="980" viewBox="0 0 720 980" fill="none" xmlns="http://www.w3.org/2000/svg">
  <rect width="720" height="980" rx="56" fill="#FAF5EB"/>
  <rect x="78" y="62" width="564" height="856" rx="52" fill="#1A2A26"/>
  <rect x="278" y="88" width="164" height="16" rx="8" fill="#566C65"/>
  <rect x="124" y="156" width="472" height="124" rx="28" fill="#F3E8D1"/>
  <text x="154" y="204" fill="#1A2A26" font-family="Avenir Next, Segoe UI, sans-serif" font-size="26" font-weight="700">Where are you going?</text>
  <text x="154" y="242" fill="#50625C" font-family="Avenir Next, Segoe UI, sans-serif" font-size="18">Ask by text or voice, even when the signal disappears.</text>
  <rect x="124" y="318" width="472" height="100" rx="24" fill="#145B46"/>
  <text x="154" y="365" fill="#F8F2E7" font-family="Avenir Next, Segoe UI, sans-serif" font-size="28" font-weight="700">GO</text>
  <text x="154" y="395" fill="#D8E8E0" font-family="Avenir Next, Segoe UI, sans-serif" font-size="18">Offline route ready: Waterloo to Baker Street</text>
  <rect x="124" y="450" width="226" height="154" rx="24" fill="#4CB7D8"/>
  <text x="152" y="500" fill="#13211D" font-family="Avenir Next, Segoe UI, sans-serif" font-size="24" font-weight="700">LOST?</text>
  <text x="152" y="536" fill="#163A35" font-family="Avenir Next, Segoe UI, sans-serif" font-size="16">Resolve signposts and unclear station clues.</text>
  <rect x="370" y="450" width="226" height="154" rx="24" fill="#D9A441"/>
  <text x="398" y="500" fill="#13211D" font-family="Avenir Next, Segoe UI, sans-serif" font-size="24" font-weight="700">Maps</text>
  <text x="398" y="536" fill="#4D3B18" font-family="Avenir Next, Segoe UI, sans-serif" font-size="16">Layer toggles and navigate-here handoff.</text>
  <rect x="124" y="636" width="472" height="210" rx="28" fill="#EAE1D3"/>
  <text x="154" y="690" fill="#13211D" font-family="Avenir Next, Segoe UI, sans-serif" font-size="24" font-weight="700">Settings</text>
  <text x="154" y="726" fill="#50625C" font-family="Avenir Next, Segoe UI, sans-serif" font-size="16">Permissions, offline content, feedback queue, and device status.</text>
  <circle cx="540" cy="760" r="22" fill="#7BC5A3"/>
  <text x="154" y="798" fill="#50625C" font-family="Avenir Next, Segoe UI, sans-serif" font-size="16">Placeholder illustration for GitHub Pages marketing.</text>
</svg>